HIERARCHY
ROOT RootJoint
{
    OFFSET   0.000000   0.000000   0.000000
    CHANNELS 6 Xposition Yposition Zposition Xrotation Yrotation Zrotation
    JOINT pelvis_lowerback
    {
        OFFSET   0.000000   0.093605   0.000000
        CHANNELS 3 Xrotation Yrotation Zrotation
        JOINT lowerback_torso
        {
            OFFSET   0.000000   0.100000   0.000000
            CHANNELS 3 Xrotation Yrotation Zrotation
            JOINT torso_head
            {
                OFFSET   0.000000   0.282350   0.000000
                CHANNELS 3 Xrotation Yrotation Zrotation
                End Site
                {
                    OFFSET   0.000000   0.192650   0.000000
                }
            }
            JOINT rTorso_Clavicle
            {
                OFFSET  -0.001000   0.157500   0.000000
                CHANNELS 3 Xrotation Yrotation Zrotation
                JOINT rShoulder
                {
                    OFFSET  -0.117647   0.000000   0.000000
                    CHANNELS 3 Xrotation Yrotation Zrotation
                    JOINT rElbow
                    {
                        OFFSET  -0.245000   0.000000   0.000000
                        CHANNELS 3 Xrotation Yrotation Zrotation
                        JOINT rWrist
                        {
                            OFFSET  -0.240000   0.000000   0.000000
                            CHANNELS 3 Xrotation Yrotation Zrotation
                            End Site
                            {
                                OFFSET  -0.116353  -0.002500   0.000000
                            }
                        }
                    }
                }
            }
            JOINT lTorso_Clavicle
            {
                OFFSET   0.001000   0.157500   0.000000
                CHANNELS 3 Xrotation Yrotation Zrotation
                JOINT lShoulder
                {
                    OFFSET   0.117647   0.000000   0.000000
                    CHANNELS 3 Xrotation Yrotation Zrotation
                    JOINT lElbow
                    {
                        OFFSET   0.245000   0.000000   0.000000
                        CHANNELS 3 Xrotation Yrotation Zrotation
                        JOINT lWrist
                        {
                            OFFSET   0.240000   0.000000   0.000000
                            CHANNELS 3 Xrotation Yrotation Zrotation
                            End Site
                            {
                                OFFSET   0.116353  -0.002500   0.000000
                            }
                        }
                    }
                }
            }
        }
    }
    JOINT rHip
    {
        OFFSET  -0.100000  -0.051395   0.000000
        CHANNELS 3 Xrotation Yrotation Zrotation
        JOINT rKnee
        {
            OFFSET   0.000000  -0.410000   0.000000
            CHANNELS 3 Xrotation Yrotation Zrotation
            JOINT rAnkle
            {
                OFFSET   0.000000  -0.390000   0.000000
                CHANNELS 3 Xrotation Yrotation Zrotation
                JOINT rToeJoint
                {
                    OFFSET   0.000000  -0.050000   0.130000
                    CHANNELS 3 Xrotation Yrotation Zrotation
                    End Site
                    {
                        OFFSET  -0.010000   0.002000   0.060000
                    }
                }
            }
        }
    }
    JOINT lHip
    {
        OFFSET   0.100000  -0.051395   0.000000
        CHANNELS 3 Xrotation Yrotation Zrotation
        JOINT lKnee
        {
            OFFSET   0.000000  -0.410000   0.000000
            CHANNELS 3 Xrotation Yrotation Zrotation
            JOINT lAnkle
            {
                OFFSET   0.000000  -0.390000   0.000000
                CHANNELS 3 Xrotation Yrotation Zrotation
                JOINT lToeJoint
                {
                    OFFSET   0.000000  -0.050000   0.130000
                    CHANNELS 3 Xrotation Yrotation Zrotation
                    End Site
                    {
                        OFFSET   0.010000   0.002000   0.060000
                    }
                }
            }
        }
    }
}
MOTION
Frames: 17
Frame Time:   0.008333
 -2.301342   0.919233   3.996166  -8.171630  -7.504230  -2.024384   9.066588  -1.648377   0.140841   5.716340  -2.740342   0.306570   4.036561  -0.964821  -0.657784   2.253445  -1.549194 -11.124127   8.676443   4.172508  56.356055  -0.000074  10.794618  -0.000071   0.965047   0.408169   9.761645   3.154497  -1.592296   9.864098   5.086366  -9.353393 -49.160325  -0.000252 -13.523640  -0.000087   2.154918  -1.484545  -9.644386  -3.828114  -7.050184 -10.134348  31.034891  -0.001249   0.000795  -3.233660 -10.636685   1.031271  -6.643469  -0.002688   0.001247  11.172571   2.221563  -0.361931   5.137092   0.000048   0.000362  -8.869171   6.937431   6.701621   0.432905  -0.000171   0.000003
 -2.301476   0.919940   3.996334  -8.184923  -7.489629  -2.071754   9.111663  -1.795157   0.168757   5.627951  -2.780383   0.341204   4.025524  -0.962109  -0.672849   2.252839  -1.728326 -11.148522   8.814316   4.191531  56.454636  -0.000085  10.773455  -0.000095   0.980481   0.399823   9.810196   3.160465  -1.522293   9.853847   5.163338  -9.347338 -49.265216  -0.000139 -13.608561  -0.000011   2.205664  -1.516074  -9.548538  -3.940359  -6.939985  -9.954043  31.590566  -0.001361   0.001454  -3.559540 -10.495878   1.237093  -6.142756  -0.003486   0.002188  11.305073   2.265462  -0.290632   4.864378   0.000094   0.000166  -8.388143   6.991649   6.356396  -0.053797  -0.001303  -0.000270
 -2.301745   0.920958   3.996445  -8.185764  -7.457291  -2.123915   9.145320  -1.939078   0.203354   5.531668  -2.825383   0.371196   4.008528  -0.960633  -0.688025   2.256229  -1.905908 -11.174762   8.948774   4.206284  56.554627  -0.000091  10.752858  -0.000113   0.993426   0.392422   9.888693   3.173756  -1.449099   9.839477   5.241961  -9.339097 -49.378672  -0.000041 -13.685423   0.000034   2.258128  -1.535673  -9.499040  -4.019462  -6.842524  -9.730503  32.090713  -0.001491   0.002030  -3.868027 -10.362816   1.430169  -5.700827  -0.003991   0.002888  11.388202   2.317170  -0.202745   4.629793   0.000131  -0.000022  -7.769690   7.043808   6.038865   0.029047  -0.000881  -0.000162
 -2.302135   0.922107   3.996508  -8.186099  -7.444222  -2.191919   9.171702  -2.063755   0.245643   5.436721  -2.860620   0.399769   3.990651  -0.959006  -0.701804   2.261516  -2.075521 -11.211447   9.077615   4.217959  56.644713  -0.000091  10.732889  -0.000126   1.006139   0.382981   9.976229   3.191056  -1.371773   9.828841   5.321037  -9.327714 -49.489386   0.000030 -13.755540   0.000060   2.309441  -1.547047  -9.478371  -4.080403  -6.758561  -9.474611  32.565857  -0.001670   0.002383  -4.156550 -10.238787   1.611328  -5.299899  -0.004291   0.003253  11.448731   2.352907  -0.089166   4.425149   0.000183  -0.000087  -7.110446   7.072316   5.757674  -0.904448  -0.002082  -0.000227
 -2.302617   0.923308   3.996531  -8.188995  -7.446148  -2.266109   9.192082  -2.174690   0.288117   5.345136  -2.888208   0.425304   3.973138  -0.957404  -0.714200   2.267484  -2.236032 -11.257371   9.200034   4.227104  56.722519  -0.000085  10.713580  -0.000135   1.018836   0.370934  10.057602   3.210517  -1.292566   9.823564   5.399475  -9.313532 -49.592388   0.000076 -13.819264   0.000073   2.359826  -1.549957  -9.468768  -4.123928  -6.688405  -9.208790  33.017607  -0.001839   0.002552  -4.425990 -10.123523   1.781307  -4.934185  -0.004414   0.003373  11.494019   2.391125   0.033999   4.248768   0.000226  -0.000108  -6.439505   7.100711   5.498288  -1.841497  -0.002802  -0.000205
 -2.303175   0.924509   3.996515  -8.193898  -7.457868  -2.341880   9.206515  -2.275022   0.328303   5.256585  -2.910603   0.447272   3.956192  -0.955914  -0.725526   2.273685  -2.387539 -11.310665   9.315979   4.234097  56.788678  -0.000075  10.694979  -0.000141   1.031454   0.356676  10.128026   3.230771  -1.213585   9.823834   5.476072  -9.297488 -49.686400   0.000103 -13.877360   0.000076   2.409229  -1.545702  -9.461856  -4.152150  -6.629190  -8.943929  33.445779  -0.001965   0.002592  -4.677540 -10.016552   1.940669  -4.599842  -0.004393   0.003334  11.527854   2.433434   0.161026   4.095061   0.000256  -0.000112  -5.776737   7.130495   5.258344  -2.755679  -0.003163  -0.000193
 -2.303840   0.925302   3.996490  -8.194827  -7.489882  -2.478099   9.206411  -2.358821   0.410418   5.165941  -2.921805   0.485339   3.939338  -0.954201  -0.734335   2.281508  -2.531897 -11.397193   9.428320   4.237235  56.833179  -0.000059  10.677285  -0.000147   1.043823   0.343098  10.193009   3.253605  -1.128790   9.847278   5.553979  -9.277548 -49.770483   0.000102 -13.930862   0.000070   2.456794  -1.539610  -9.471676  -4.173116  -6.584568  -8.633191  33.862390  -0.002053   0.002492  -4.913050  -9.916779   2.090229  -4.300736  -0.004238   0.003135  11.553385   2.469339   0.358540   4.039503   0.000240  -0.000081  -4.929462   7.149636   5.067583  -5.701825  -0.003120   0.001661
 -2.304519   0.926608   3.996487  -8.173114  -7.436749  -2.452704   9.162892  -2.483098   0.347345   5.075912  -2.987650   0.486844   3.883418  -0.948805  -0.716021   2.281126  -2.667436 -11.369324   9.517604   4.201961  56.881167  -0.000059  10.651497  -0.000176   1.057533   0.298951  10.188789   3.239240  -1.097859   9.807549   5.708229  -9.275301 -49.826390  -0.000022 -13.837919   0.000003   2.521459  -1.582114  -9.413282  -4.002772  -6.521472  -8.457854  33.765475  -0.001588   0.001805  -5.061996  -9.740739   2.244140  -4.134683  -0.003790   0.003056  11.528835   2.487057   0.414174   3.934727   0.000248  -0.000137  -4.226791   7.120620   4.740066  -6.326810  -0.003531   0.001211
 -2.305251   0.928085   3.996411  -8.135852  -7.390536  -2.415392   9.109128  -2.591443   0.287498   4.973863  -3.050354   0.473004   3.822756  -0.943679  -0.701847   2.280594  -2.795898 -11.335247   9.600364   4.170357  56.940222  -0.000061  10.628508  -0.000191   1.068472   0.258903  10.210686   3.231434  -1.068867   9.755296   5.855242  -9.273952 -49.896903  -0.000141 -13.747129  -0.000040   2.590459  -1.588980  -9.393369  -3.813288  -6.451758  -8.283426  33.604575  -0.001174   0.001124  -5.205077  -9.575155   2.387771  -3.983066  -0.003390   0.002941  11.454112   2.503083   0.463238   3.865967   0.000238  -0.000154  -3.416546   7.080701   4.442736  -7.172162  -0.003902   0.000981
 -2.306048   0.929600   3.996272  -8.098411  -7.355554  -2.387474   9.053967  -2.685789   0.239322   4.872057  -3.103438   0.457952   3.763763  -0.938733  -0.688868   2.279315  -2.914863 -11.306526   9.676647   4.141861  56.997486  -0.000059  10.608099  -0.000195   1.077767   0.226448  10.248266   3.226933  -1.038553   9.700317   5.994178  -9.272793 -49.972671  -0.000230 -13.662269  -0.000063   2.657240  -1.590609  -9.403775  -3.616451  -6.389973  -8.100768  33.450723  -0.000835   0.000617  -5.339692  -9.420559   2.522183  -3.846703  -0.003023   0.002764  11.358742   2.526133   0.522907   3.823486   0.000215  -0.000149  -2.584595   7.046260   4.170536  -8.103339  -0.004060   0.000790
 -2.306905   0.931086   3.996077  -8.063523  -7.331100  -2.368464   8.998098  -2.768375   0.198892   4.773276  -3.147582   0.443973   3.707863  -0.934019  -0.676209   2.277173  -3.024607 -11.284451   9.746882   4.115880  57.049418  -0.000055  10.589798  -0.000192   1.085892   0.199973  10.288789   3.224660  -1.006828   9.647587   6.125726  -9.270865 -50.047262  -0.000289 -13.582730  -0.000073   2.721323  -1.591028  -9.429155  -3.416205  -6.336627  -7.916319  33.314015  -0.000568   0.000267  -5.465595  -9.276385   2.648038  -3.722967  -0.002688   0.002550  11.254276   2.554110   0.592318   3.797446   0.000189  -0.000133  -1.765273   7.016184   3.920384  -9.057180  -0.004015   0.000630
 -2.307816   0.932506   3.995826  -8.030986  -7.315773  -2.355124   8.941651  -2.840990   0.162872   4.677684  -3.184216   0.430661   3.655129  -0.929568  -0.664002   2.274213  -3.125778 -11.268344   9.811526   4.092068  57.095493  -0.000050  10.573294  -0.000185   1.093084   0.178118  10.326538   3.223871  -0.974254   9.599251   6.250209  -9.267925 -50.117683  -0.000323 -13.507998  -0.000074   2.782938  -1.589779  -9.459853  -3.215578  -6.290005  -7.736470  33.193483  -0.000364   0.000035  -5.583182  -9.142008   2.765847  -3.610065  -0.002382   0.002320  11.145696   2.585179   0.668199   3.781134   0.000162  -0.000114  -0.975223   6.989279   3.689081  -9.998607  -0.003821   0.000497
 -2.308777   0.933840   3.995518  -8.000261  -7.308167  -2.344729   8.885053  -2.905079   0.129199   4.585212  -3.214645   0.417434   3.605405  -0.925381  -0.652453   2.270472  -3.218942 -11.257049   9.870926   4.070259  57.136131  -0.000043  10.558396  -0.000174   1.099463   0.160105  10.359596   3.223989  -0.941551   9.555824   6.367737  -9.264124 -50.182848  -0.000337 -13.437769  -0.000069   2.842249  -1.586644  -9.490839  -3.016985  -6.248488  -7.565481  33.086641  -0.000213  -0.000113  -5.692965  -9.016807   2.876077  -3.506712  -0.002103   0.002087  11.035564   2.618006   0.747873   3.770102   0.000137  -0.000096  -0.222900   6.964650   3.474180 -10.906906  -0.003533   0.000390
 -2.309829   0.934699   3.995300  -7.965606  -7.261370  -2.358701   8.795312  -2.946440   0.094279   4.504316  -3.249318   0.430382   3.508602  -0.917380  -0.609196   2.298683  -3.300166 -11.123442   9.942559   3.988293  57.036517  -0.000032  10.513481  -0.000213   1.119421   0.143418  10.357232   3.205938  -0.959535   9.424871   6.523969  -9.267507 -50.087379  -0.000397 -13.204124  -0.000083   2.896221  -1.681143  -9.562306  -2.667082  -6.213598  -7.387888  32.645983  -0.000057  -0.000771  -5.650844  -8.893583   2.913607  -3.461638  -0.001722   0.001786  10.880701   2.594174   0.875251   3.919899  -0.000012  -0.000041   0.146843   6.849676   3.414801 -11.436743  -0.002561   0.000852
 -2.310879   0.935202   3.995068  -7.915220  -7.205250  -2.345755   8.692119  -2.978329   0.034952   4.412178  -3.279903   0.437997   3.410229  -0.908865  -0.567822   2.328451  -3.378703 -10.983288  10.013087   3.908800  56.942666  -0.000023  10.466900  -0.000238   1.144197   0.098498  10.326514   3.191180  -0.975536   9.305141   6.675032  -9.264273 -49.980735  -0.000405 -12.977160  -0.000032   2.957706  -1.718267  -9.596501  -2.310234  -6.173301  -7.271497  32.183478  -0.000083  -0.001301  -5.612450  -8.778573   2.948122  -3.409464  -0.001405   0.001559  10.726304   2.600522   0.963995   4.043547  -0.000091   0.000045   0.369611   6.771241   3.332949 -11.738341  -0.002011   0.000731
 -2.311940   0.935475   3.994777  -7.852630  -7.145480  -2.311545   8.585089  -3.002367  -0.039514   4.315470  -3.304402   0.438013   3.315534  -0.900693  -0.531001   2.355155  -3.450734 -10.839339  10.077047   3.835876  56.861588  -0.000019  10.423426  -0.000246   1.168850   0.049605  10.293695   3.178064  -0.988332   9.192885   6.817875  -9.258541 -49.876173  -0.000408 -12.763185   0.000041   3.019597  -1.734485  -9.608395  -1.963887  -6.128917  -7.200818  31.741588  -0.000192  -0.001665  -5.576708  -8.671659   2.979826  -3.358350  -0.001136   0.001369  10.580016   2.607231   1.031519   4.137841  -0.000132   0.000102   0.501061   6.696660   3.250646 -11.895580  -0.001604   0.000584
 -2.313018   0.935596   3.994403  -7.780133  -7.085027  -2.263396   8.479992  -3.018765  -0.120664   4.218678  -3.322271   0.432322   3.225704  -0.892959  -0.498274   2.377363  -3.514314 -10.693857  10.132861   3.770499  56.792424  -0.000020  10.384190  -0.000237   1.191524   0.007294  10.266584   3.166103  -0.999379   9.084216   6.951649  -9.252262 -49.778549  -0.000418 -12.562756   0.000110   3.079725  -1.743677  -9.611521  -1.632298  -6.082998  -7.161071  31.327077  -0.000323  -0.001891  -5.543192  -8.572196   3.009055  -3.309266  -0.000912   0.001206  10.438394   2.608033   1.087090   4.204470  -0.000148   0.000126   0.575996   6.620468   3.168154 -11.953691  -0.001285   0.000466
